<svg width="70" height="70" viewBox="0 0 70 70" fill="none" xmlns="http://www.w3.org/2000/svg">
<g filter="url(#filter0_d_2_70)">
<circle cx="34.9993" cy="21.7999" r="16.7999" fill="white" fill-opacity="0.933333"/>
</g>
<path d="M40.2492 21.8C40.2492 23.1924 39.6961 24.5277 38.7115 25.5123C37.727 26.4969 36.3916 27.05 34.9992 27.05C33.6068 27.05 32.2715 26.4969 31.2869 25.5123C30.3023 24.5277 29.7492 23.1924 29.7492 21.8C29.7492 21.5008 29.7807 21.2085 29.835 20.925H27.9992V27.9198C27.9992 28.4063 28.393 28.8 28.8795 28.8H41.1207C41.3539 28.7995 41.5773 28.7066 41.742 28.5416C41.9067 28.3765 41.9992 28.1529 41.9992 27.9198V20.925H40.1635C40.2177 21.2085 40.2492 21.5008 40.2492 21.8ZM34.9992 25.3C35.459 25.2999 35.9142 25.2092 36.3389 25.0332C36.7636 24.8571 37.1495 24.5992 37.4745 24.274C37.7995 23.9488 38.0572 23.5628 38.2331 23.138C38.4089 22.7133 38.4993 22.258 38.4992 21.7983C38.4991 21.3385 38.4084 20.8833 38.2324 20.4586C38.0564 20.0339 37.7984 19.648 37.4732 19.323C37.1481 18.998 36.7621 18.7402 36.3373 18.5644C35.9125 18.3886 35.4572 18.2981 34.9975 18.2983C34.069 18.2985 33.1786 18.6675 32.5222 19.3243C31.8659 19.981 31.4972 20.8715 31.4975 21.8C31.4977 22.7285 31.8668 23.6189 32.5235 24.2752C33.1802 24.9316 34.0707 25.3002 34.9992 25.3ZM39.1992 18.125H41.2975C41.4369 18.125 41.5706 18.0697 41.6693 17.9713C41.7681 17.8729 41.8238 17.7394 41.8242 17.6V15.5018C41.8242 15.362 41.7687 15.2281 41.6699 15.1293C41.5712 15.0305 41.4372 14.975 41.2975 14.975H39.1992C39.0595 14.975 38.9255 15.0305 38.8268 15.1293C38.728 15.2281 38.6725 15.362 38.6725 15.5018V17.6C38.6742 17.8888 38.9105 18.125 39.1992 18.125ZM34.9992 5C30.5436 5 26.2704 6.76999 23.1198 9.92061C19.9692 13.0712 18.1992 17.3444 18.1992 21.8C18.1992 26.2556 19.9692 30.5288 23.1198 33.6794C26.2704 36.83 30.5436 38.6 34.9992 38.6C37.2054 38.6 39.39 38.1655 41.4283 37.3212C43.4666 36.4769 45.3186 35.2394 46.8786 33.6794C48.4386 32.1194 49.6761 30.2674 50.5204 28.2291C51.3647 26.1908 51.7992 24.0062 51.7992 21.8C51.7992 19.5938 51.3647 17.4092 50.5204 15.3709C49.6761 13.3326 48.4386 11.4806 46.8786 9.92061C45.3186 8.36058 43.4666 7.1231 41.4283 6.27882C39.39 5.43454 37.2054 5 34.9992 5ZM43.7492 28.6058C43.7492 29.675 42.8742 30.55 41.805 30.55H28.1935C27.1242 30.55 26.2492 29.675 26.2492 28.6058V14.9943C26.2492 13.925 27.1242 13.05 28.1935 13.05H41.805C42.8742 13.05 43.7492 13.925 43.7492 14.9943V28.6058Z" fill="#20481F"/>
<defs>
<filter id="filter0_d_2_70" x="0.199341" y="0" width="69.5999" height="69.5999" filterUnits="userSpaceOnUse" color-interpolation-filters="sRGB">
<feFlood flood-opacity="0" result="BackgroundImageFix"/>
<feColorMatrix in="SourceAlpha" type="matrix" values="0 0 0 0 0 0 0 0 0 0 0 0 0 0 0 0 0 0 127 0" result="hardAlpha"/>
<feOffset dy="13"/>
<feGaussianBlur stdDeviation="9"/>
<feColorMatrix type="matrix" values="0 0 0 0 0.0658854 0 0 0 0 0.0730469 0 0 0 0 0.1375 0 0 0 0.08 0"/>
<feBlend mode="normal" in2="BackgroundImageFix" result="effect1_dropShadow_2_70"/>
<feBlend mode="normal" in="SourceGraphic" in2="effect1_dropShadow_2_70" result="shape"/>
</filter>
</defs>
</svg>
